<svg xmlns="http://www.w3.org/2000/svg" viewBox="0 0 900 420" width="900" height="420">
  <defs>
    <linearGradient id="bg" x1="0%" y1="0%" x2="100%" y2="100%">
      <stop offset="0%" stop-color="#0a0e17"/>
      <stop offset="50%" stop-color="#0d1117"/>
      <stop offset="100%" stop-color="#080c14"/>
    </linearGradient>
    <linearGradient id="cyan" x1="0%" y1="0%" x2="100%" y2="0%">
      <stop offset="0%" stop-color="#00d9ff" stop-opacity="0"/>
      <stop offset="50%" stop-color="#00d9ff" stop-opacity="1"/>
      <stop offset="100%" stop-color="#00d9ff" stop-opacity="0"/>
    </linearGradient>
    <linearGradient id="scanG" x1="0%" y1="0%" x2="0%" y2="100%">
      <stop offset="0%" stop-color="#00d9ff" stop-opacity="0"/>
      <stop offset="45%" stop-color="#00d9ff" stop-opacity="0.06"/>
      <stop offset="50%" stop-color="#00d9ff" stop-opacity="0.18"/>
      <stop offset="55%" stop-color="#00d9ff" stop-opacity="0.06"/>
      <stop offset="100%" stop-color="#00d9ff" stop-opacity="0"/>
    </linearGradient>
  </defs>

  <!-- Background -->
  <rect width="900" height="420" fill="url(#bg)" rx="12"/>

  <!-- Grid -->
  <g opacity="0.04" stroke="#00d9ff" stroke-width="0.5">
    <line x1="60" y1="0" x2="60" y2="420"/><line x1="120" y1="0" x2="120" y2="420"/>
    <line x1="180" y1="0" x2="180" y2="420"/><line x1="240" y1="0" x2="240" y2="420"/>
    <line x1="300" y1="0" x2="300" y2="420"/><line x1="360" y1="0" x2="360" y2="420"/>
    <line x1="420" y1="0" x2="420" y2="420"/><line x1="480" y1="0" x2="480" y2="420"/>
    <line x1="540" y1="0" x2="540" y2="420"/><line x1="600" y1="0" x2="600" y2="420"/>
    <line x1="660" y1="0" x2="660" y2="420"/><line x1="720" y1="0" x2="720" y2="420"/>
    <line x1="780" y1="0" x2="780" y2="420"/><line x1="840" y1="0" x2="840" y2="420"/>
    <line x1="0" y1="60" x2="900" y2="60"/><line x1="0" y1="120" x2="900" y2="120"/>
    <line x1="0" y1="180" x2="900" y2="180"/><line x1="0" y1="240" x2="900" y2="240"/>
    <line x1="0" y1="300" x2="900" y2="300"/><line x1="0" y1="360" x2="900" y2="360"/>
  </g>

  <!-- Hex decorations -->
  <g opacity="0.06" fill="none" stroke="#00d9ff" stroke-width="0.5">
    <polygon points="45,30 55,25 65,30 65,40 55,45 45,40"/>
    <polygon points="745,60 755,55 765,60 765,70 755,75 745,70"/>
    <polygon points="820,340 830,335 840,340 840,350 830,355 820,350"/>
    <polygon points="680,380 690,375 700,380 700,390 690,395 680,390"/>
    <polygon points="30,350 40,345 50,350 50,360 40,365 30,360"/>
    <polygon points="850,120 860,115 870,120 870,130 860,135 850,130"/>
  </g>

  <!-- Scan line -->
  <rect x="0" y="-50" width="900" height="50" fill="url(#scanG)">
    <animateTransform attributeName="transform" type="translate" values="0 0;0 520;0 0" dur="5s" repeatCount="indefinite"/>
  </rect>

  <!-- ══════ LEFT: RADAR ══════ -->
  <!-- Radar rings -->
  <circle cx="150" cy="210" r="105" fill="none" stroke="#00d9ff" stroke-width="0.5" opacity="0.08">
    <animate attributeName="r" values="100;112;100" dur="3.5s" repeatCount="indefinite"/>
    <animate attributeName="opacity" values="0.08;0.25;0.08" dur="3.5s" repeatCount="indefinite"/>
  </circle>
  <circle cx="150" cy="210" r="80" fill="none" stroke="#00d9ff" stroke-width="0.5" opacity="0.12">
    <animate attributeName="r" values="76;88;76" dur="3s" repeatCount="indefinite"/>
    <animate attributeName="opacity" values="0.12;0.4;0.12" dur="3s" repeatCount="indefinite"/>
  </circle>
  <circle cx="150" cy="210" r="55" fill="none" stroke="#00d9ff" stroke-width="0.8" opacity="0.25">
    <animate attributeName="r" values="52;62;52" dur="2.5s" repeatCount="indefinite"/>
    <animate attributeName="opacity" values="0.25;0.7;0.25" dur="2.5s" repeatCount="indefinite"/>
  </circle>
  <circle cx="150" cy="210" r="35" fill="none" stroke="#00d9ff" stroke-width="1" opacity="0.5"/>
  <circle cx="150" cy="210" r="3" fill="#00d9ff" opacity="0.9"/>

  <!-- Radar crosshairs -->
  <line x1="150" y1="145" x2="150" y2="275" stroke="#00d9ff" stroke-width="0.3" opacity="0.3"/>
  <line x1="85" y1="210" x2="215" y2="210" stroke="#00d9ff" stroke-width="0.3" opacity="0.3"/>

  <!-- Radar sweep -->
  <line x1="150" y1="210" x2="150" y2="100" stroke="#00d9ff" stroke-width="1.5" opacity="0.6">
    <animateTransform attributeName="transform" type="rotate" from="0 150 210" to="360 150 210" dur="4s" repeatCount="indefinite"/>
  </line>

  <!-- Radar blips -->
  <circle cx="170" cy="185" r="2.5" fill="#00ff88">
    <animate attributeName="opacity" values="0;1;1;0" dur="3s" repeatCount="indefinite"/>
  </circle>
  <circle cx="125" cy="230" r="2" fill="#ffd700">
    <animate attributeName="opacity" values="0;0;1;1;0" dur="3.5s" repeatCount="indefinite"/>
  </circle>
  <circle cx="175" cy="240" r="2" fill="#00ff88">
    <animate attributeName="opacity" values="1;0;0;1" dur="4s" repeatCount="indefinite"/>
  </circle>
  <circle cx="130" cy="190" r="1.5" fill="#ff6b6b">
    <animate attributeName="opacity" values="0;1;0;1;0" dur="2.5s" repeatCount="indefinite"/>
  </circle>

  <!-- Radar labels -->
  <text x="150" y="300" text-anchor="middle" font-family="Consolas,monospace" fill="#00d9ff" font-size="9" opacity="0.6">THREAT RADAR</text>
  <text x="150" y="315" text-anchor="middle" font-family="Consolas,monospace" fill="#00ff88" font-size="8" opacity="0.5">SCANNING...</text>

  <!-- ══════ CENTER: SHIELD + TITLE ══════ -->
  <!-- Top line -->
  <rect x="260" y="22" width="380" height="1" fill="url(#cyan)" opacity="0.4"/>

  <!-- Title -->
  <text x="450" y="50" text-anchor="middle" font-family="Consolas,monospace" fill="#00d9ff" font-size="11" font-weight="bold" letter-spacing="4">INTELLIGENCE  ANALYST  SYSTEM</text>

  <!-- Status -->
  <circle cx="340" cy="46" r="3" fill="#00ff88">
    <animate attributeName="fill" values="#00ff88;#00cc66;#00ff88" dur="2s" repeatCount="indefinite"/>
  </circle>
  <text x="348" y="49" font-family="Consolas,monospace" fill="#00ff88" font-size="8">ONLINE</text>

  <!-- Shield -->
  <g>
    <path d="M450,85 L480,98 L480,138 Q480,168 450,178 Q420,168 420,138 L420,98 Z" fill="none" stroke="#00d9ff" stroke-width="2" opacity="0.8">
      <animate attributeName="opacity" values="0.6;1;0.6" dur="3s" repeatCount="indefinite"/>
    </path>
    <path d="M450,95 L472,105 L472,135 Q472,160 450,168 Q428,160 428,135 L428,105 Z" fill="#00d9ff" opacity="0.05"/>
    <text x="450" y="132" text-anchor="middle" font-family="Segoe UI,Helvetica,sans-serif" fill="#00d9ff" font-size="22" font-weight="700">AI</text>
    <text x="450" y="152" text-anchor="middle" font-family="Consolas,monospace" fill="#c9d1d9" font-size="8" letter-spacing="2">ANALYST</text>
  </g>

  <!-- Subtitle -->
  <text x="450" y="200" text-anchor="middle" font-family="Segoe UI,Helvetica,sans-serif" fill="#c9d1d9" font-size="13" font-weight="600">Policia Civil  ·  Inteligencia Artificial  ·  Seguranca Publica</text>
  <line x1="310" y1="215" x2="590" y2="215" stroke="#00d9ff" stroke-width="0.5" opacity="0.2"/>

  <!-- ══════ RIGHT: TERMINAL ══════ -->
  <!-- Window -->
  <rect x="630" y="75" width="240" height="270" rx="6" fill="#0a0e17" stroke="#1a2332" stroke-width="1" opacity="0.9"/>
  <rect x="630" y="75" width="240" height="22" rx="6" fill="#1a2332"/>
  <rect x="630" y="89" width="240" height="8" fill="#1a2332"/>
  <circle cx="644" cy="86" r="4" fill="#ff5f57"/>
  <circle cx="658" cy="86" r="4" fill="#febc2e"/>
  <circle cx="672" cy="86" r="4" fill="#28c840"/>
  <text x="750" y="90" text-anchor="middle" font-family="Consolas,monospace" fill="#8b949e" font-size="8">analyst.sh</text>

  <!-- Terminal lines with staggered fade-in -->
  <text x="640" y="120" font-family="Consolas,monospace" fill="#00d9ff" font-size="9" opacity="0">
    $ ./analyst --scan
    <animate attributeName="opacity" values="0;0;1;1" dur="4s" fill="freeze"/>
  </text>
  <text x="640" y="140" font-family="Consolas,monospace" fill="#8b949e" font-size="9" opacity="0">
    [INFO] Inicializando modulos...
    <animate attributeName="opacity" values="0;0;0;1;1" dur="5s" fill="freeze"/>
  </text>

  <!-- Module checkmarks -->
  <g font-family="Consolas,monospace" font-size="9">
    <text x="640" y="163" fill="#00ff88" opacity="0">✓ Modulo de Investigacao
      <animate attributeName="opacity" values="0;0;0;0;1" dur="4s" fill="freeze"/>
    </text>
    <text x="640" y="180" fill="#00ff88" opacity="0">✓ Inteligencia Financeira
      <animate attributeName="opacity" values="0;0;0;0;0;1" dur="5s" fill="freeze"/>
    </text>
    <text x="640" y="197" fill="#00ff88" opacity="0">✓ Geointeligencia (Mapbox)
      <animate attributeName="opacity" values="0;0;0;0;0;0;1" dur="6s" fill="freeze"/>
    </text>
    <text x="640" y="214" fill="#00ff88" opacity="0">✓ Auditoria e Compliance
      <animate attributeName="opacity" values="0;0;0;0;0;0;0;1" dur="7s" fill="freeze"/>
    </text>
    <text x="640" y="231" fill="#ffd700" opacity="0">✓ Analise de Vinculos
      <animate attributeName="opacity" values="0;0;0;0;0;0;0;0;1" dur="8s" fill="freeze"/>
    </text>
    <text x="640" y="248" fill="#ffd700" opacity="0">✓ BACEN PIX/CCS
      <animate attributeName="opacity" values="0;0;0;0;0;0;0;0;0;1" dur="9s" fill="freeze"/>
    </text>
  </g>

  <!-- Separator -->
  <text x="640" y="270" font-family="Consolas,monospace" fill="#8b949e" font-size="9" opacity="0.5">─────────────────────────────</text>

  <!-- Stats -->
  <text x="640" y="290" font-family="Consolas,monospace" fill="#c9d1d9" font-size="9">Sistemas ativos:</text>
  <text x="785" y="290" font-family="Consolas,monospace" fill="#00ff88" font-size="10" font-weight="bold">7 / 7</text>

  <text x="640" y="310" font-family="Consolas,monospace" fill="#c9d1d9" font-size="9">Threat Level:</text>
  <rect x="735" y="302" width="40" height="10" rx="2" fill="#00ff88" opacity="0.8"/>
  <rect x="778" y="302" width="40" height="10" rx="2" fill="#1a2332" opacity="0.5"/>
  <text x="830" y="311" font-family="Consolas,monospace" fill="#00ff88" font-size="8">LOW</text>

  <!-- Blinking cursor -->
  <text x="640" y="333" font-family="Consolas,monospace" fill="#00d9ff" font-size="9">█ Monitorando...</text>
  <rect x="640" y="324" width="7" height="12" fill="#00d9ff">
    <animate attributeName="opacity" values="1;0;1" dur="1s" repeatCount="indefinite"/>
  </rect>

  <!-- ══════ BOTTOM: STATS BAR ══════ -->
  <rect x="0" y="368" width="900" height="52" fill="#0a0e17" opacity="0.7"/>
  <line x1="0" y1="368" x2="900" y2="368" stroke="#00d9ff" stroke-width="0.5" opacity="0.2"/>

  <g font-family="Consolas,monospace">
    <text x="60" y="390" fill="#8b949e" font-size="9">OPERACOES</text>
    <text x="60" y="408" fill="#00d9ff" font-size="14" font-weight="bold">150+</text>

    <line x1="170" y1="378" x2="170" y2="410" stroke="#1a2332" stroke-width="1"/>

    <text x="210" y="390" fill="#8b949e" font-size="9">MODULOS</text>
    <text x="210" y="408" fill="#00ff88" font-size="14" font-weight="bold">7</text>

    <line x1="300" y1="378" x2="300" y2="410" stroke="#1a2332" stroke-width="1"/>

    <text x="340" y="390" fill="#8b949e" font-size="9">EDGE FUNCTIONS</text>
    <text x="340" y="408" fill="#ffd700" font-size="14" font-weight="bold">32+</text>

    <line x1="480" y1="378" x2="480" y2="410" stroke="#1a2332" stroke-width="1"/>

    <text x="520" y="390" fill="#8b949e" font-size="9">TABELAS RLS</text>
    <text x="520" y="408" fill="#00d9ff" font-size="14" font-weight="bold">42</text>

    <line x1="630" y1="378" x2="630" y2="410" stroke="#1a2332" stroke-width="1"/>

    <text x="670" y="390" fill="#8b949e" font-size="9">UPTIME</text>
    <text x="670" y="408" fill="#00ff88" font-size="14" font-weight="bold">99.9%</text>

    <line x1="780" y1="378" x2="780" y2="410" stroke="#1a2332" stroke-width="1"/>

    <text x="810" y="390" fill="#8b949e" font-size="9">STATUS</text>
    <circle cx="818" cy="406" r="4" fill="#00ff88">
      <animate attributeName="fill" values="#00ff88;#00cc66;#00ff88" dur="2s" repeatCount="indefinite"/>
    </circle>
    <text x="828" y="409" fill="#00ff88" font-size="10">ATIVO</text>
  </g>

  <!-- Corner brackets -->
  <polyline points="15,2 2,2 2,15" fill="none" stroke="#00d9ff" stroke-width="1.5" opacity="0.4"/>
  <polyline points="885,2 898,2 898,15" fill="none" stroke="#00d9ff" stroke-width="1.5" opacity="0.4"/>
  <polyline points="2,405 2,418 15,418" fill="none" stroke="#00d9ff" stroke-width="1.5" opacity="0.4"/>
  <polyline points="898,405 898,418 885,418" fill="none" stroke="#00d9ff" stroke-width="1.5" opacity="0.4"/>

  <!-- Outer border -->
  <rect x="1" y="1" width="898" height="418" rx="12" fill="none" stroke="#00d9ff" stroke-width="0.5" opacity="0.15"/>
</svg>
