<svg xmlns="http://www.w3.org/2000/svg" viewBox="0 0 900 520" width="900" height="520">
  <defs>
    <linearGradient id="bg" x1="0%" y1="0%" x2="100%" y2="100%">
      <stop offset="0%" stop-color="#060911"/>
      <stop offset="50%" stop-color="#0d1117"/>
      <stop offset="100%" stop-color="#060911"/>
    </linearGradient>
    <linearGradient id="cyan" x1="0%" y1="0%" x2="100%" y2="0%">
      <stop offset="0%" stop-color="#00d9ff" stop-opacity="0"/>
      <stop offset="50%" stop-color="#00d9ff" stop-opacity="1"/>
      <stop offset="100%" stop-color="#00d9ff" stop-opacity="0"/>
    </linearGradient>
    <linearGradient id="scanG" x1="0%" y1="0%" x2="0%" y2="100%">
      <stop offset="0%" stop-color="#00d9ff" stop-opacity="0"/>
      <stop offset="45%" stop-color="#00d9ff" stop-opacity="0.05"/>
      <stop offset="50%" stop-color="#00d9ff" stop-opacity="0.15"/>
      <stop offset="55%" stop-color="#00d9ff" stop-opacity="0.05"/>
      <stop offset="100%" stop-color="#00d9ff" stop-opacity="0"/>
    </linearGradient>
    <linearGradient id="edgeGrad" x1="0%" y1="0%" x2="100%" y2="0%">
      <stop offset="0%" stop-color="#00d9ff" stop-opacity="0.1"/>
      <stop offset="50%" stop-color="#00d9ff" stop-opacity="0.5"/>
      <stop offset="100%" stop-color="#00d9ff" stop-opacity="0.1"/>
    </linearGradient>
    <linearGradient id="edgeWarn" x1="0%" y1="0%" x2="100%" y2="0%">
      <stop offset="0%" stop-color="#ffd700" stop-opacity="0.1"/>
      <stop offset="50%" stop-color="#ffd700" stop-opacity="0.4"/>
      <stop offset="100%" stop-color="#ffd700" stop-opacity="0.1"/>
    </linearGradient>
    <linearGradient id="edgeRed" x1="0%" y1="0%" x2="100%" y2="0%">
      <stop offset="0%" stop-color="#ff6b6b" stop-opacity="0.1"/>
      <stop offset="50%" stop-color="#ff6b6b" stop-opacity="0.4"/>
      <stop offset="100%" stop-color="#ff6b6b" stop-opacity="0.1"/>
    </linearGradient>
  </defs>

  <!-- Background -->
  <rect width="900" height="520" fill="url(#bg)" rx="12"/>

  <!-- Grid -->
  <g opacity="0.03" stroke="#00d9ff" stroke-width="0.5">
    <line x1="0" y1="0" x2="0" y2="520"/><line x1="45" y1="0" x2="45" y2="520"/>
    <line x1="90" y1="0" x2="90" y2="520"/><line x1="135" y1="0" x2="135" y2="520"/>
    <line x1="180" y1="0" x2="180" y2="520"/><line x1="225" y1="0" x2="225" y2="520"/>
    <line x1="270" y1="0" x2="270" y2="520"/><line x1="315" y1="0" x2="315" y2="520"/>
    <line x1="360" y1="0" x2="360" y2="520"/><line x1="405" y1="0" x2="405" y2="520"/>
    <line x1="450" y1="0" x2="450" y2="520"/><line x1="495" y1="0" x2="495" y2="520"/>
    <line x1="540" y1="0" x2="540" y2="520"/><line x1="585" y1="0" x2="585" y2="520"/>
    <line x1="630" y1="0" x2="630" y2="520"/><line x1="675" y1="0" x2="675" y2="520"/>
    <line x1="720" y1="0" x2="720" y2="520"/><line x1="765" y1="0" x2="765" y2="520"/>
    <line x1="810" y1="0" x2="810" y2="520"/><line x1="855" y1="0" x2="855" y2="520"/>
    <line x1="0" y1="45" x2="900" y2="45"/><line x1="0" y1="90" x2="900" y2="90"/>
    <line x1="0" y1="135" x2="900" y2="135"/><line x1="0" y1="180" x2="900" y2="180"/>
    <line x1="0" y1="225" x2="900" y2="225"/><line x1="0" y1="270" x2="900" y2="270"/>
    <line x1="0" y1="315" x2="900" y2="315"/><line x1="0" y1="360" x2="900" y2="360"/>
    <line x1="0" y1="405" x2="900" y2="405"/><line x1="0" y1="450" x2="900" y2="450"/>
    <line x1="0" y1="495" x2="900" y2="495"/>
  </g>

  <!-- Hex decorations -->
  <g opacity="0.05" fill="none" stroke="#00d9ff" stroke-width="0.5">
    <polygon points="25,20 35,15 45,20 45,30 35,35 25,30"/>
    <polygon points="855,20 865,15 875,20 875,30 865,35 855,30"/>
    <polygon points="25,485 35,480 45,485 45,495 35,500 25,495"/>
    <polygon points="855,485 865,480 875,485 875,495 865,500 855,495"/>
    <polygon points="430,10 440,5 450,10 450,20 440,25 430,20"/>
    <polygon points="460,10 470,5 480,10 480,20 470,25 460,20"/>
  </g>

  <!-- Scan line -->
  <rect x="0" y="-50" width="900" height="50" fill="url(#scanG)">
    <animateTransform attributeName="transform" type="translate" values="0 0;0 620;0 0" dur="6s" repeatCount="indefinite"/>
  </rect>

  <!-- ══════════════ TOP BAR ══════════════ -->
  <rect x="20" y="18" width="860" height="1" fill="url(#cyan)" opacity="0.3"/>
  <text x="450" y="42" text-anchor="middle" font-family="Consolas,monospace" fill="#00d9ff" font-size="12" font-weight="bold" letter-spacing="6">INTELLIGENCE  ANALYST  SYSTEM</text>
  <rect x="20" y="50" width="860" height="1" fill="url(#cyan)" opacity="0.15"/>

  <!-- Status indicators top -->
  <circle cx="35" cy="38" r="3" fill="#00ff88">
    <animate attributeName="fill" values="#00ff88;#00994d;#00ff88" dur="2s" repeatCount="indefinite"/>
  </circle>
  <text x="44" y="41" font-family="Consolas,monospace" fill="#00ff88" font-size="7">SYS OK</text>

  <circle cx="830" cy="38" r="3" fill="#00d9ff">
    <animate attributeName="opacity" values="0.5;1;0.5" dur="1.5s" repeatCount="indefinite"/>
  </circle>
  <text x="805" y="41" text-anchor="end" font-family="Consolas,monospace" fill="#00d9ff" font-size="7">LIVE</text>

  <!-- ══════════════ LEFT: RADAR ══════════════ -->
  <g>
    <!-- Radar background circle -->
    <circle cx="120" cy="155" r="85" fill="#0a0e17" stroke="#1a2332" stroke-width="0.5" opacity="0.8"/>

    <!-- Radar rings -->
    <circle cx="120" cy="155" r="75" fill="none" stroke="#00d9ff" stroke-width="0.3" opacity="0.1">
      <animate attributeName="r" values="72;80;72" dur="3.5s" repeatCount="indefinite"/>
      <animate attributeName="opacity" values="0.1;0.2;0.1" dur="3.5s" repeatCount="indefinite"/>
    </circle>
    <circle cx="120" cy="155" r="55" fill="none" stroke="#00d9ff" stroke-width="0.4" opacity="0.15">
      <animate attributeName="r" values="52;60;52" dur="3s" repeatCount="indefinite"/>
      <animate attributeName="opacity" values="0.15;0.35;0.15" dur="3s" repeatCount="indefinite"/>
    </circle>
    <circle cx="120" cy="155" r="35" fill="none" stroke="#00d9ff" stroke-width="0.6" opacity="0.25"/>
    <circle cx="120" cy="155" r="15" fill="none" stroke="#00d9ff" stroke-width="0.8" opacity="0.35"/>
    <circle cx="120" cy="155" r="2.5" fill="#00d9ff" opacity="0.9"/>

    <!-- Crosshairs -->
    <line x1="120" y1="70" x2="120" y2="240" stroke="#00d9ff" stroke-width="0.2" opacity="0.2"/>
    <line x1="35" y1="155" x2="205" y2="155" stroke="#00d9ff" stroke-width="0.2" opacity="0.2"/>
    <line x1="60" y1="95" x2="180" y2="215" stroke="#00d9ff" stroke-width="0.15" opacity="0.1"/>
    <line x1="180" y1="95" x2="60" y2="215" stroke="#00d9ff" stroke-width="0.15" opacity="0.1"/>

    <!-- Sweep -->
    <line x1="120" y1="155" x2="120" y2="70" stroke="#00d9ff" stroke-width="1.2" opacity="0.5">
      <animateTransform attributeName="transform" type="rotate" from="0 120 155" to="360 120 155" dur="4s" repeatCount="indefinite"/>
    </line>

    <!-- Blips -->
    <circle cx="142" cy="130" r="3" fill="#ff6b6b">
      <animate attributeName="opacity" values="0;1;1;0" dur="3s" repeatCount="indefinite"/>
      <animate attributeName="r" values="2;4;2" dur="3s" repeatCount="indefinite"/>
    </circle>
    <circle cx="95" cy="175" r="2.5" fill="#ffd700">
      <animate attributeName="opacity" values="0;0;1;1;0" dur="3.5s" repeatCount="indefinite"/>
    </circle>
    <circle cx="150" cy="170" r="2" fill="#00ff88">
      <animate attributeName="opacity" values="1;0;0;1" dur="4s" repeatCount="indefinite"/>
    </circle>
    <circle cx="105" cy="125" r="2" fill="#00ff88">
      <animate attributeName="opacity" values="0;1;0" dur="2s" repeatCount="indefinite"/>
    </circle>
    <circle cx="140" cy="185" r="1.5" fill="#ffd700">
      <animate attributeName="opacity" values="1;0;1;0;1" dur="2.5s" repeatCount="indefinite"/>
    </circle>

    <!-- Label -->
    <text x="120" y="252" text-anchor="middle" font-family="Consolas,monospace" fill="#00d9ff" font-size="8" opacity="0.5">THREAT RADAR</text>
    <text x="120" y="264" text-anchor="middle" font-family="Consolas,monospace" fill="#00ff88" font-size="7" opacity="0.4">4 TARGETS DETECTED</text>
  </g>

  <!-- ══════════════ CENTER: i2 NETWORK GRAPH ══════════════ -->
  <g>
    <!-- Section label -->
    <text x="450" y="78" text-anchor="middle" font-family="Consolas,monospace" fill="#8b949e" font-size="8" letter-spacing="2">LINK ANALYSIS  ·  i2 NETWORK VISUALIZATION</text>

    <!-- ═══ EDGES (connections between nodes) ═══ -->
    <!-- Main suspect to phone -->
    <line x1="390" y1="180" x2="310" y2="130" stroke="#00d9ff" stroke-width="1" opacity="0.3">
      <animate attributeName="opacity" values="0.15;0.5;0.15" dur="3s" repeatCount="indefinite"/>
    </line>
    <!-- Main suspect to money -->
    <line x1="390" y1="180" x2="520" y2="130" stroke="#ffd700" stroke-width="1" opacity="0.3">
      <animate attributeName="opacity" values="0.15;0.4;0.15" dur="3.5s" repeatCount="indefinite"/>
    </line>
    <!-- Main suspect to location -->
    <line x1="390" y1="180" x2="310" y2="250" stroke="#00d9ff" stroke-width="0.8" opacity="0.25">
      <animate attributeName="opacity" values="0.1;0.4;0.1" dur="4s" repeatCount="indefinite"/>
    </line>
    <!-- Main suspect to suspect2 -->
    <line x1="420" y1="180" x2="540" y2="200" stroke="#ff6b6b" stroke-width="1.2" opacity="0.35">
      <animate attributeName="opacity" values="0.2;0.6;0.2" dur="2.5s" repeatCount="indefinite"/>
    </line>
    <!-- Suspect2 to phone2 -->
    <line x1="560" y1="200" x2="620" y2="140" stroke="#00d9ff" stroke-width="0.8" opacity="0.25">
      <animate attributeName="opacity" values="0.1;0.35;0.1" dur="3s" repeatCount="indefinite"/>
    </line>
    <!-- Suspect2 to money -->
    <line x1="540" y1="190" x2="520" y2="130" stroke="#ffd700" stroke-width="0.8" opacity="0.25">
      <animate attributeName="opacity" values="0.1;0.35;0.1" dur="3.2s" repeatCount="indefinite"/>
    </line>
    <!-- Phone to phone2 -->
    <line x1="325" y1="125" x2="605" y2="135" stroke="#00d9ff" stroke-width="0.5" opacity="0.15" stroke-dasharray="4 3">
      <animate attributeName="opacity" values="0.05;0.25;0.05" dur="4s" repeatCount="indefinite"/>
    </line>
    <!-- Main suspect to vehicle -->
    <line x1="405" y1="195" x2="450" y2="270" stroke="#00d9ff" stroke-width="0.8" opacity="0.2">
      <animate attributeName="opacity" values="0.1;0.35;0.1" dur="3.8s" repeatCount="indefinite"/>
    </line>
    <!-- Suspect2 to location2 -->
    <line x1="555" y1="215" x2="580" y2="270" stroke="#00d9ff" stroke-width="0.8" opacity="0.2">
      <animate attributeName="opacity" values="0.1;0.3;0.1" dur="4.2s" repeatCount="indefinite"/>
    </line>
    <!-- Vehicle to location -->
    <line x1="440" y1="275" x2="325" y2="260" stroke="#8b949e" stroke-width="0.5" opacity="0.15" stroke-dasharray="3 3"/>
    <!-- Phone to suspect3 -->
    <line x1="300" y1="140" x2="250" y2="200" stroke="#00d9ff" stroke-width="0.6" opacity="0.2">
      <animate attributeName="opacity" values="0.1;0.3;0.1" dur="3.5s" repeatCount="indefinite"/>
    </line>
    <!-- Suspect3 to location -->
    <line x1="260" y1="210" x2="300" y2="250" stroke="#8b949e" stroke-width="0.5" opacity="0.15"/>
    <!-- Money to bank -->
    <line x1="520" y1="115" x2="460" y2="95" stroke="#ffd700" stroke-width="0.6" opacity="0.2" stroke-dasharray="3 2">
      <animate attributeName="opacity" values="0.1;0.35;0.1" dur="2.8s" repeatCount="indefinite"/>
    </line>

    <!-- ═══ DATA FLOW particles on edges ═══ -->
    <!-- Particle on main-to-suspect2 edge -->
    <circle r="1.5" fill="#ff6b6b" opacity="0.8">
      <animateMotion dur="2s" repeatCount="indefinite" path="M420,180 L540,200"/>
    </circle>
    <!-- Particle on main-to-money edge -->
    <circle r="1.5" fill="#ffd700" opacity="0.7">
      <animateMotion dur="2.5s" repeatCount="indefinite" path="M390,180 L520,130"/>
    </circle>
    <!-- Particle on phone-phone2 -->
    <circle r="1" fill="#00d9ff" opacity="0.6">
      <animateMotion dur="3s" repeatCount="indefinite" path="M325,125 L605,135"/>
    </circle>
    <!-- Particle suspect2 to phone2 -->
    <circle r="1" fill="#00d9ff" opacity="0.6">
      <animateMotion dur="2s" repeatCount="indefinite" path="M560,200 L620,140"/>
    </circle>

    <!-- ═══ NODES ═══ -->

    <!-- NODE: ALVO PRINCIPAL (main suspect) - large -->
    <circle cx="400" cy="182" r="22" fill="#0d1117" stroke="#ff6b6b" stroke-width="2" opacity="0.9">
      <animate attributeName="stroke-opacity" values="0.5;1;0.5" dur="2s" repeatCount="indefinite"/>
    </circle>
    <circle cx="400" cy="182" r="26" fill="none" stroke="#ff6b6b" stroke-width="0.5" opacity="0.2">
      <animate attributeName="r" values="26;30;26" dur="2s" repeatCount="indefinite"/>
      <animate attributeName="opacity" values="0.2;0;0.2" dur="2s" repeatCount="indefinite"/>
    </circle>
    <text x="400" y="179" text-anchor="middle" font-family="Segoe UI,sans-serif" fill="#ff6b6b" font-size="14">&#x1F464;</text>
    <text x="400" y="193" text-anchor="middle" font-family="Consolas,monospace" fill="#ff6b6b" font-size="5">ALVO</text>
    <text x="400" y="214" text-anchor="middle" font-family="Consolas,monospace" fill="#ff6b6b" font-size="7" font-weight="bold">ALVO PRINCIPAL</text>

    <!-- NODE: SUSPECT 2 -->
    <circle cx="555" cy="200" r="17" fill="#0d1117" stroke="#ff6b6b" stroke-width="1.5" opacity="0.85"/>
    <text x="555" y="198" text-anchor="middle" font-family="Segoe UI,sans-serif" fill="#ff6b6b" font-size="12">&#x1F464;</text>
    <text x="555" y="208" text-anchor="middle" font-family="Consolas,monospace" fill="#ff6b6b" font-size="4.5">INVEST.</text>
    <text x="555" y="224" text-anchor="middle" font-family="Consolas,monospace" fill="#c9d1d9" font-size="6.5">Investigado 02</text>

    <!-- NODE: SUSPECT 3 -->
    <circle cx="255" cy="205" r="14" fill="#0d1117" stroke="#ffd700" stroke-width="1.2" opacity="0.8"/>
    <text x="255" y="203" text-anchor="middle" font-family="Segoe UI,sans-serif" fill="#ffd700" font-size="10">&#x1F464;</text>
    <text x="255" y="212" text-anchor="middle" font-family="Consolas,monospace" fill="#ffd700" font-size="4">SUSP.</text>
    <text x="255" y="226" text-anchor="middle" font-family="Consolas,monospace" fill="#c9d1d9" font-size="6.5">Suspeito 03</text>

    <!-- NODE: PHONE 1 -->
    <circle cx="305" cy="125" r="14" fill="#0d1117" stroke="#00d9ff" stroke-width="1.2" opacity="0.85"/>
    <text x="305" y="123" text-anchor="middle" font-family="Segoe UI,sans-serif" fill="#00d9ff" font-size="11">&#x1F4F1;</text>
    <text x="305" y="132" text-anchor="middle" font-family="Consolas,monospace" fill="#00d9ff" font-size="4">TEL</text>
    <text x="305" y="147" text-anchor="middle" font-family="Consolas,monospace" fill="#8b949e" font-size="6">(92) 9****-1234</text>

    <!-- NODE: PHONE 2 -->
    <circle cx="620" cy="135" r="12" fill="#0d1117" stroke="#00d9ff" stroke-width="1" opacity="0.8"/>
    <text x="620" y="133" text-anchor="middle" font-family="Segoe UI,sans-serif" fill="#00d9ff" font-size="10">&#x1F4F1;</text>
    <text x="620" y="141" text-anchor="middle" font-family="Consolas,monospace" fill="#00d9ff" font-size="3.5">TEL</text>
    <text x="620" y="155" text-anchor="middle" font-family="Consolas,monospace" fill="#8b949e" font-size="6">(92) 9****-5678</text>

    <!-- NODE: MONEY / PIX -->
    <circle cx="520" cy="118" r="15" fill="#0d1117" stroke="#ffd700" stroke-width="1.5" opacity="0.85"/>
    <text x="520" y="116" text-anchor="middle" font-family="Segoe UI,sans-serif" fill="#ffd700" font-size="12">&#x1F4B0;</text>
    <text x="520" y="126" text-anchor="middle" font-family="Consolas,monospace" fill="#ffd700" font-size="4">PIX</text>
    <text x="520" y="140" text-anchor="middle" font-family="Consolas,monospace" fill="#ffd700" font-size="6.5">R$ ***,00</text>

    <!-- NODE: BANK -->
    <circle cx="455" cy="92" r="11" fill="#0d1117" stroke="#ffd700" stroke-width="1" opacity="0.75"/>
    <text x="455" y="91" text-anchor="middle" font-family="Segoe UI,sans-serif" fill="#ffd700" font-size="9">&#x1F3E6;</text>
    <text x="455" y="99" text-anchor="middle" font-family="Consolas,monospace" fill="#ffd700" font-size="3.5">BACEN</text>
    <text x="455" y="109" text-anchor="middle" font-family="Consolas,monospace" fill="#8b949e" font-size="5.5">Inst. Financ.</text>

    <!-- NODE: LOCATION 1 -->
    <circle cx="310" cy="255" r="13" fill="#0d1117" stroke="#00ff88" stroke-width="1.2" opacity="0.8"/>
    <text x="310" y="254" text-anchor="middle" font-family="Segoe UI,sans-serif" fill="#00ff88" font-size="10">&#x1F4CD;</text>
    <text x="310" y="262" text-anchor="middle" font-family="Consolas,monospace" fill="#00ff88" font-size="3.5">LOC</text>
    <text x="310" y="275" text-anchor="middle" font-family="Consolas,monospace" fill="#8b949e" font-size="6">Manaus, AM</text>

    <!-- NODE: LOCATION 2 -->
    <circle cx="585" cy="275" r="11" fill="#0d1117" stroke="#00ff88" stroke-width="1" opacity="0.75"/>
    <text x="585" y="274" text-anchor="middle" font-family="Segoe UI,sans-serif" fill="#00ff88" font-size="9">&#x1F4CD;</text>
    <text x="585" y="281" text-anchor="middle" font-family="Consolas,monospace" fill="#00ff88" font-size="3.5">LOC</text>
    <text x="585" y="293" text-anchor="middle" font-family="Consolas,monospace" fill="#8b949e" font-size="5.5">Endereco 02</text>

    <!-- NODE: VEHICLE -->
    <circle cx="450" cy="275" r="12" fill="#0d1117" stroke="#c9a0ff" stroke-width="1.2" opacity="0.8"/>
    <text x="450" y="274" text-anchor="middle" font-family="Segoe UI,sans-serif" fill="#c9a0ff" font-size="10">&#x1F697;</text>
    <text x="450" y="282" text-anchor="middle" font-family="Consolas,monospace" fill="#c9a0ff" font-size="3.5">VEI</text>
    <text x="450" y="295" text-anchor="middle" font-family="Consolas,monospace" fill="#8b949e" font-size="6">ABC-*D12</text>

    <!-- Legend box -->
    <rect x="230" y="302" width="430" height="28" rx="4" fill="#0a0e17" stroke="#1a2332" stroke-width="0.5" opacity="0.8"/>
    <circle cx="250" cy="316" r="3" fill="#ff6b6b"/><text x="258" y="319" font-family="Consolas,monospace" fill="#8b949e" font-size="6.5">Investigado</text>
    <circle cx="320" cy="316" r="3" fill="#ffd700"/><text x="328" y="319" font-family="Consolas,monospace" fill="#8b949e" font-size="6.5">Financeiro</text>
    <circle cx="393" cy="316" r="3" fill="#00d9ff"/><text x="401" y="319" font-family="Consolas,monospace" fill="#8b949e" font-size="6.5">Telefone</text>
    <circle cx="458" cy="316" r="3" fill="#00ff88"/><text x="466" y="319" font-family="Consolas,monospace" fill="#8b949e" font-size="6.5">Local</text>
    <circle cx="508" cy="316" r="3" fill="#c9a0ff"/><text x="516" y="319" font-family="Consolas,monospace" fill="#8b949e" font-size="6.5">Veiculo</text>
    <line x1="570" y1="311" x2="590" y2="311" stroke="#ff6b6b" stroke-width="1"/><text x="595" y="314" font-family="Consolas,monospace" fill="#8b949e" font-size="6">Vinculo forte</text>
    <line x1="570" y1="322" x2="590" y2="322" stroke="#8b949e" stroke-width="0.5" stroke-dasharray="3 2"/><text x="595" y="325" font-family="Consolas,monospace" fill="#8b949e" font-size="6">Vinculo fraco</text>
  </g>

  <!-- ══════════════ RIGHT: TERMINAL ══════════════ -->
  <g>
    <rect x="680" y="72" width="200" height="258" rx="6" fill="#0a0e17" stroke="#1a2332" stroke-width="1" opacity="0.9"/>
    <rect x="680" y="72" width="200" height="20" rx="6" fill="#1a2332"/>
    <rect x="680" y="84" width="200" height="8" fill="#1a2332"/>
    <circle cx="693" cy="82" r="3.5" fill="#ff5f57"/>
    <circle cx="705" cy="82" r="3.5" fill="#febc2e"/>
    <circle cx="717" cy="82" r="3.5" fill="#28c840"/>
    <text x="780" y="85" text-anchor="middle" font-family="Consolas,monospace" fill="#8b949e" font-size="7">analyst.sh</text>

    <!-- Terminal content -->
    <text x="690" y="110" font-family="Consolas,monospace" fill="#00d9ff" font-size="8" opacity="0">$ ./analyst --deep-scan
      <animate attributeName="opacity" values="0;0;1" dur="2s" fill="freeze"/>
    </text>
    <text x="690" y="125" font-family="Consolas,monospace" fill="#8b949e" font-size="7.5" opacity="0">[INFO] Boot modulos...
      <animate attributeName="opacity" values="0;0;0;1" dur="3s" fill="freeze"/>
    </text>

    <g font-family="Consolas,monospace" font-size="7.5">
      <text x="690" y="145" fill="#00ff88" opacity="0">&#10003; Investigacao
        <animate attributeName="opacity" values="0;0;0;0;1" dur="3.5s" fill="freeze"/>
      </text>
      <text x="690" y="158" fill="#00ff88" opacity="0">&#10003; Intel. Financeira
        <animate attributeName="opacity" values="0;0;0;0;0;1" dur="4s" fill="freeze"/>
      </text>
      <text x="690" y="171" fill="#00ff88" opacity="0">&#10003; Geointeligencia
        <animate attributeName="opacity" values="0;0;0;0;0;0;1" dur="4.5s" fill="freeze"/>
      </text>
      <text x="690" y="184" fill="#00ff88" opacity="0">&#10003; Auditoria
        <animate attributeName="opacity" values="0;0;0;0;0;0;0;1" dur="5s" fill="freeze"/>
      </text>
      <text x="690" y="197" fill="#ffd700" opacity="0">&#10003; Analise Vinculos
        <animate attributeName="opacity" values="0;0;0;0;0;0;0;0;1" dur="5.5s" fill="freeze"/>
      </text>
      <text x="690" y="210" fill="#ffd700" opacity="0">&#10003; BACEN PIX/CCS
        <animate attributeName="opacity" values="0;0;0;0;0;0;0;0;0;1" dur="6s" fill="freeze"/>
      </text>
      <text x="690" y="223" fill="#c9a0ff" opacity="0">&#10003; Link Analysis
        <animate attributeName="opacity" values="0;0;0;0;0;0;0;0;0;0;1" dur="6.5s" fill="freeze"/>
      </text>
    </g>

    <text x="690" y="242" font-family="Consolas,monospace" fill="#8b949e" font-size="7" opacity="0.4">─────────────────────────</text>

    <text x="690" y="258" font-family="Consolas,monospace" fill="#c9d1d9" font-size="7.5">Nodes:</text>
    <text x="830" y="258" text-anchor="end" font-family="Consolas,monospace" fill="#00ff88" font-size="8" font-weight="bold">9</text>

    <text x="690" y="272" font-family="Consolas,monospace" fill="#c9d1d9" font-size="7.5">Edges:</text>
    <text x="830" y="272" text-anchor="end" font-family="Consolas,monospace" fill="#00d9ff" font-size="8" font-weight="bold">12</text>

    <text x="690" y="286" font-family="Consolas,monospace" fill="#c9d1d9" font-size="7.5">Clusters:</text>
    <text x="830" y="286" text-anchor="end" font-family="Consolas,monospace" fill="#ffd700" font-size="8" font-weight="bold">2</text>

    <text x="690" y="300" font-family="Consolas,monospace" fill="#c9d1d9" font-size="7.5">Threats:</text>
    <text x="830" y="300" text-anchor="end" font-family="Consolas,monospace" fill="#ff6b6b" font-size="8" font-weight="bold">4</text>

    <!-- Blinking cursor -->
    <rect x="690" y="312" width="5" height="9" fill="#00d9ff">
      <animate attributeName="opacity" values="1;0;1" dur="1s" repeatCount="indefinite"/>
    </rect>
    <text x="698" y="320" font-family="Consolas,monospace" fill="#00d9ff" font-size="7.5">Scanning...</text>
  </g>

  <!-- ══════════════ SHIELD (center between radar and graph) ══════════════ -->
  <g>
    <path d="M120,290 L142,300 L142,330 Q142,350 120,358 Q98,350 98,330 L98,300 Z" fill="none" stroke="#00d9ff" stroke-width="1.5" opacity="0.7">
      <animate attributeName="opacity" values="0.5;0.9;0.5" dur="3s" repeatCount="indefinite"/>
    </path>
    <path d="M120,297 L137,305 L137,328 Q137,345 120,351 Q103,345 103,328 L103,305 Z" fill="#00d9ff" opacity="0.04"/>
    <text x="120" y="322" text-anchor="middle" font-family="Segoe UI,sans-serif" fill="#00d9ff" font-size="16" font-weight="700">AI</text>
    <text x="120" y="337" text-anchor="middle" font-family="Consolas,monospace" fill="#c9d1d9" font-size="5.5" letter-spacing="1.5">ANALYST</text>
  </g>

  <!-- ══════════════ BOTTOM: STATS BAR ══════════════ -->
  <rect x="0" y="345" width="900" height="1" fill="url(#cyan)" opacity="0.15"/>

  <!-- Mini bar charts area -->
  <g>
    <rect x="20" y="355" width="270" height="95" rx="5" fill="#0a0e17" stroke="#1a2332" stroke-width="0.5" opacity="0.7"/>
    <text x="155" y="370" text-anchor="middle" font-family="Consolas,monospace" fill="#00d9ff" font-size="7.5" letter-spacing="1">OPERACOES / MES</text>

    <!-- Bar chart -->
    <g opacity="0.9">
      <rect x="40" y="410" width="16" height="28" rx="1" fill="#00d9ff" opacity="0.3"/>
      <rect x="62" y="400" width="16" height="38" rx="1" fill="#00d9ff" opacity="0.4"/>
      <rect x="84" y="392" width="16" height="46" rx="1" fill="#00d9ff" opacity="0.5"/>
      <rect x="106" y="385" width="16" height="53" rx="1" fill="#00d9ff" opacity="0.55"/>
      <rect x="128" y="395" width="16" height="43" rx="1" fill="#00d9ff" opacity="0.45"/>
      <rect x="150" y="380" width="16" height="58" rx="1" fill="#00d9ff" opacity="0.6"/>
      <rect x="172" y="388" width="16" height="50" rx="1" fill="#00ff88" opacity="0.5"/>
      <rect x="194" y="378" width="16" height="60" rx="1" fill="#00ff88" opacity="0.6"/>
      <rect x="216" y="385" width="16" height="53" rx="1" fill="#00ff88" opacity="0.55"/>
      <rect x="238" y="370" width="16" height="68" rx="1" fill="#00ff88" opacity="0.7">
        <animate attributeName="opacity" values="0.5;0.9;0.5" dur="2s" repeatCount="indefinite"/>
      </rect>
    </g>
    <line x1="35" y1="438" x2="260" y2="438" stroke="#1a2332" stroke-width="0.5"/>
    <text x="40" y="447" font-family="Consolas,monospace" fill="#8b949e" font-size="5.5">MAR ABR MAI JUN JUL AGO SET OUT NOV DEZ</text>
  </g>

  <!-- Stats cards -->
  <g>
    <rect x="310" y="355" width="130" height="95" rx="5" fill="#0a0e17" stroke="#1a2332" stroke-width="0.5" opacity="0.7"/>
    <text x="375" y="374" text-anchor="middle" font-family="Consolas,monospace" fill="#8b949e" font-size="7">MODULOS ATIVOS</text>
    <text x="375" y="408" text-anchor="middle" font-family="Consolas,monospace" fill="#00ff88" font-size="28" font-weight="bold">7</text>
    <text x="375" y="422" text-anchor="middle" font-family="Consolas,monospace" fill="#00ff88" font-size="7">/7 OPERACIONAIS</text>
    <circle cx="375" cy="440" r="3" fill="#00ff88">
      <animate attributeName="fill" values="#00ff88;#00994d;#00ff88" dur="2s" repeatCount="indefinite"/>
    </circle>
  </g>

  <g>
    <rect x="460" y="355" width="130" height="95" rx="5" fill="#0a0e17" stroke="#1a2332" stroke-width="0.5" opacity="0.7"/>
    <text x="525" y="374" text-anchor="middle" font-family="Consolas,monospace" fill="#8b949e" font-size="7">TABELAS RLS</text>
    <text x="525" y="408" text-anchor="middle" font-family="Consolas,monospace" fill="#00d9ff" font-size="28" font-weight="bold">42</text>
    <text x="525" y="422" text-anchor="middle" font-family="Consolas,monospace" fill="#00d9ff" font-size="7">PROTEGIDAS</text>
    <text x="525" y="440" text-anchor="middle" font-family="Consolas,monospace" fill="#8b949e" font-size="6">5 roles · RBAC</text>
  </g>

  <g>
    <rect x="610" y="355" width="130" height="95" rx="5" fill="#0a0e17" stroke="#1a2332" stroke-width="0.5" opacity="0.7"/>
    <text x="675" y="374" text-anchor="middle" font-family="Consolas,monospace" fill="#8b949e" font-size="7">EDGE FUNCTIONS</text>
    <text x="675" y="408" text-anchor="middle" font-family="Consolas,monospace" fill="#ffd700" font-size="28" font-weight="bold">32</text>
    <text x="675" y="422" text-anchor="middle" font-family="Consolas,monospace" fill="#ffd700" font-size="7">SERVERLESS</text>
    <text x="675" y="440" text-anchor="middle" font-family="Consolas,monospace" fill="#8b949e" font-size="6">Supabase Edge</text>
  </g>

  <g>
    <rect x="760" y="355" width="120" height="95" rx="5" fill="#0a0e17" stroke="#1a2332" stroke-width="0.5" opacity="0.7"/>
    <text x="820" y="374" text-anchor="middle" font-family="Consolas,monospace" fill="#8b949e" font-size="7">UPTIME</text>
    <text x="820" y="408" text-anchor="middle" font-family="Consolas,monospace" fill="#00ff88" font-size="24" font-weight="bold">99.9</text>
    <text x="855" y="408" font-family="Consolas,monospace" fill="#00ff88" font-size="12">%</text>
    <text x="820" y="422" text-anchor="middle" font-family="Consolas,monospace" fill="#00ff88" font-size="7">DISPONIBILIDADE</text>
    <circle cx="820" cy="440" r="3" fill="#00ff88">
      <animate attributeName="fill" values="#00ff88;#00994d;#00ff88" dur="2s" repeatCount="indefinite"/>
    </circle>
  </g>

  <!-- ══════════════ BOTTOM LABEL ══════════════ -->
  <rect x="20" y="462" width="860" height="1" fill="url(#cyan)" opacity="0.1"/>
  <text x="450" y="480" text-anchor="middle" font-family="Segoe UI,sans-serif" fill="#c9d1d9" font-size="11" font-weight="600">Policia Civil  ·  Inteligencia Artificial  ·  Seguranca Publica</text>
  <text x="450" y="498" text-anchor="middle" font-family="Consolas,monospace" fill="#8b949e" font-size="7.5" letter-spacing="1">SISTEMAS DE MISSAO CRITICA  ·  INVESTIGACAO  ·  AUDITORIA  ·  GEOINTELIGENCIA</text>

  <!-- Corner brackets -->
  <polyline points="15,2 2,2 2,15" fill="none" stroke="#00d9ff" stroke-width="1.5" opacity="0.4"/>
  <polyline points="885,2 898,2 898,15" fill="none" stroke="#00d9ff" stroke-width="1.5" opacity="0.4"/>
  <polyline points="2,505 2,518 15,518" fill="none" stroke="#00d9ff" stroke-width="1.5" opacity="0.4"/>
  <polyline points="898,505 898,518 885,518" fill="none" stroke="#00d9ff" stroke-width="1.5" opacity="0.4"/>

  <!-- Border -->
  <rect x="1" y="1" width="898" height="518" rx="12" fill="none" stroke="#00d9ff" stroke-width="0.5" opacity="0.12"/>
</svg>
